<svg id="레이어_1" data-name="레이어 1" xmlns="http://www.w3.org/2000/svg" viewBox="0 0 78.5 24.5"><defs><style>.cls-1{fill:#e73a72;}</style></defs><title>대지 1</title><path class="cls-1" d="M54.3,5.89A6.67,6.67,0,0,0,50.93,5a6.35,6.35,0,0,0-4.38,1.72,6.4,6.4,0,0,0-2.18,4.94,6.46,6.46,0,0,0,1.93,4.71A6.33,6.33,0,0,0,51,18.3a6.67,6.67,0,0,0,3.38-.89A6.44,6.44,0,0,0,56.76,15a6.68,6.68,0,0,0,.88-3.35,6.55,6.55,0,0,0-.88-3.32A6.43,6.43,0,0,0,54.3,5.89Zm-.84,8.41a3.3,3.3,0,0,1-2.49,1,3.26,3.26,0,0,1-2.46-1,3.74,3.74,0,0,1-1-2.68,3.66,3.66,0,0,1,1-2.63,3.51,3.51,0,0,1,4.95,0,3.69,3.69,0,0,1,1,2.65A3.68,3.68,0,0,1,53.46,14.3Z"/><path class="cls-1" d="M63,5.1H59.83V16.46c0,3.34-.18,4.48-2.74,4.7v3.21c5.94,0,5.9-4.85,5.9-7Z"/><path class="cls-1" d="M26.24,6.92A6.87,6.87,0,0,0,24.1,5.49a6.63,6.63,0,0,0-7.26,1.44A6.25,6.25,0,0,0,15.4,9.09a6.56,6.56,0,0,0-.51,2.55,6.69,6.69,0,0,0,.5,2.54A6.64,6.64,0,0,0,19,17.78a6.58,6.58,0,0,0,2.56.52,5.27,5.27,0,0,0,3.58-1.46v1.33h3.07V11.64a6.52,6.52,0,0,0-2-4.72ZM24.84,13a3.64,3.64,0,0,1-.77,1.14,3.43,3.43,0,0,1-1.14.77,3.59,3.59,0,0,1-2.77,0A3.33,3.33,0,0,1,19,14.17,3.67,3.67,0,0,1,18.24,13,3.55,3.55,0,0,1,18,11.64a3.42,3.42,0,0,1,.28-1.39A3.56,3.56,0,0,1,19,9.09a3.45,3.45,0,0,1,1.14-.76,3.34,3.34,0,0,1,1.38-.28,3.42,3.42,0,0,1,1.39.28,3.56,3.56,0,0,1,1.14.76,3.73,3.73,0,0,1,.77,1.16,3.59,3.59,0,0,1,.28,1.39A3.56,3.56,0,0,1,24.84,13Z"/><path class="cls-1" d="M76.55,6.92a6.87,6.87,0,0,0-2.14-1.43,6.63,6.63,0,0,0-7.26,1.44A6.42,6.42,0,0,0,65.7,9.09a6.65,6.65,0,0,0,3.59,8.69,6.58,6.58,0,0,0,2.56.52,5.27,5.27,0,0,0,3.58-1.46v1.33H78.5V11.64A6.74,6.74,0,0,0,78,9.09,6.56,6.56,0,0,0,76.55,6.92ZM75.15,13a3.64,3.64,0,0,1-.77,1.14,3.43,3.43,0,0,1-1.14.77,3.59,3.59,0,0,1-2.77,0,3.33,3.33,0,0,1-1.14-.77A3.5,3.5,0,0,1,68.55,13a3.56,3.56,0,0,1-.28-1.39,3.58,3.58,0,0,1,2.2-3.31,3.34,3.34,0,0,1,1.38-.28,3.42,3.42,0,0,1,1.39.28,3.56,3.56,0,0,1,1.14.76,3.73,3.73,0,0,1,.77,1.16,3.59,3.59,0,0,1,.28,1.39A3.56,3.56,0,0,1,75.15,13Z"/><polygon class="cls-1" points="9.06 17.97 14.66 5.1 11.04 5.1 7.32 13.91 3.62 5.1 0 5.1 5.55 17.97 2.77 24.37 6.28 24.37 9.06 17.98 9.06 17.98 9.06 17.97"/><path class="cls-1" d="M42.62,9a6.88,6.88,0,0,0-1.45-2.17A6.66,6.66,0,0,0,39,5.41a6.54,6.54,0,0,0-2.56-.51,5.28,5.28,0,0,0-3.57,1.45V.13H29.81V18.18h3.08v-1a6.53,6.53,0,0,0,1,.54,6.67,6.67,0,0,0,9.22-6.16A6.83,6.83,0,0,0,42.62,9ZM39.76,13A3.52,3.52,0,0,1,39,14.1a3.76,3.76,0,0,1-1.14.77,3.55,3.55,0,0,1-1.39.27,3.5,3.5,0,0,1-1.38-.27,3.64,3.64,0,0,1-1.14-.77,3.6,3.6,0,0,1-1-2.55,3.42,3.42,0,0,1,.28-1.39A3.48,3.48,0,0,1,33.94,9a3.64,3.64,0,0,1,1.14-.77,3.6,3.6,0,0,1,2.77,0A3.76,3.76,0,0,1,39,9a3.48,3.48,0,0,1,.77,1.14A3.42,3.42,0,0,1,40,11.55,3.5,3.5,0,0,1,39.76,13Z"/></svg>